<?xml version="1.0" encoding="UTF-8"?>
<svg width="512px" height="512px" viewBox="0 0 512 512" version="1.1" xmlns="http://www.w3.org/2000/svg" xmlns:xlink="http://www.w3.org/1999/xlink">
    <title>icon-512</title>
    <g id="icon-512" stroke="none" stroke-width="1" fill="none" fill-rule="evenodd">
        <path d="M235.141163,46 L276.858837,46 C329.016753,46 358.073582,53.4260489 384.147656,67.3706163 C410.22173,81.3151837 430.684816,101.77827 444.629384,127.852344 C458.573951,153.926418 466,182.983247 466,235.141163 L466,276.858837 C466,329.016753 458.573951,358.073582 444.629384,384.147656 C430.684816,410.22173 410.22173,430.684816 384.147656,444.629384 C358.073582,458.573951 329.016753,466 276.858837,466 L235.141163,466 C182.983247,466 153.926418,458.573951 127.852344,444.629384 C101.77827,430.684816 81.3151837,410.22173 67.3706163,384.147656 C53.4260489,358.073582 46,329.016753 46,276.858837 L46,235.141163 C46,182.983247 53.4260489,153.926418 67.3706163,127.852344 C81.3151837,101.77827 101.77827,81.3151837 127.852344,67.3706163 C153.926418,53.4260489 182.983247,46 235.141163,46 Z" id="Rectangle" fill="#FFFFFF"></path>
        <path d="M276.389,103.837954 L281.640417,116.236652 L231.732804,127.955357 L169.138506,142.636605 L229.078723,164.463166 L268.282141,178.725338 L220.296012,272.411398 L186.127066,339.11791 L246.675089,296.751749 L334.470612,235.299637 L352.335197,264.913382 L380.353064,311.344124 L386.321949,256.404287 L390.959249,213.650089 L402.946,216.964954 L402.946822,296.5 C402.946822,358.632034 352.578857,409 290.446822,409 L221.5,409 C159.367966,409 109,358.632034 109,296.5 L109,216.338919 C109,154.206884 159.367966,103.838919 221.5,103.838919 L276.389,103.837954 Z M382.237772,19 L378.076473,115.109654 L469,96.5134496 L394.02527,153.059284 L464.719968,215.263626 L375.389308,189.665473 L368.92803,254.905254 L340.754194,208.421291 L238.018565,280.148124 L294.760424,167.330417 L235.733376,145.23799 L307.463107,128.980146 L269.767011,41.0924852 L339.552686,104.39343 L382.237772,19 Z" id="Combined-Shape" fill="#000000"></path>
    </g>
</svg>