<?xml version="1.0" encoding="UTF-8"?>
<svg width="800px" height="280px" viewBox="0 0 800 280" version="1.1" xmlns="http://www.w3.org/2000/svg" xmlns:xlink="http://www.w3.org/1999/xlink">
    <title>logo</title>
    <g id="logo" stroke="none" stroke-width="1" fill="none" fill-rule="evenodd">
        <g id="Group" transform="translate(23.9662, 54.7161)" fill="#FFFFFF" fill-rule="nonzero">
            <path d="M18.59375,146.5625 C29.53125,146.5625 37.3697917,140.455729 37.3697917,127.239583 L37.3697917,85.859375 C37.3697917,77.109375 41.9270833,71.640625 49.4921875,71.640625 C57.5130208,71.640625 61.6145833,76.4713542 61.6145833,86.0416667 L61.6145833,127.239583 C61.6145833,140.455729 68.359375,146.5625 79.296875,146.5625 C90.234375,146.5625 97.0703125,140.455729 97.0703125,127.239583 L97.0703125,85.859375 C97.0703125,77.0182292 101.536458,71.640625 109.101562,71.640625 C117.213542,71.640625 121.315104,76.3802083 121.315104,85.9505208 L121.315104,127.239583 C121.315104,140.455729 128.971354,146.5625 139.908854,146.5625 C150.846354,146.5625 158.684896,140.455729 158.684896,127.239583 L158.684896,76.2890625 C158.684896,55.78125 145.195312,41.6536458 125.598958,41.6536458 C110.286458,41.6536458 98.0729167,50.4947917 94.7005208,63.8020833 L93.9713542,63.8020833 C91.5104167,49.6744792 81.3020833,41.6536458 65.9895833,41.6536458 C52.2265625,41.6536458 40.9244792,50.4036458 37.1875,63.984375 L36.4583333,63.984375 L36.4583333,60.4296875 C36.4583333,47.3046875 28.984375,41.3802083 18.2291667,41.3802083 C7.47395833,41.3802083 0,47.3958333 0,60.4296875 L0,127.239583 C0,140.455729 7.65625,146.5625 18.59375,146.5625 Z M701.594799,51.6957626 C704.351985,51.6957626 707.038083,51.9964896 709.620759,52.5664264 L705.596616,53.4688131 L698.991911,54.9482224 L705.339946,57.2962481 L715.12477,60.9148542 L704.711759,81.3767207 L703.150976,84.4421639 C702.568149,84.1294927 701.896198,83.9508821 701.178513,83.9508821 L651.856452,83.9508821 C649.597649,83.9508821 647.791881,85.720159 647.791881,87.86978 L647.791881,105.670727 C647.791881,107.820348 649.597649,109.589624 651.856452,109.589624 L701.178513,109.589624 C703.437315,109.589624 705.243083,107.820348 705.243083,105.670727 L705.243083,87.86978 C705.243083,87.1703389 705.051904,86.5111654 704.716145,85.9401057 L707.630023,83.9300356 L726.59177,70.8458542 L731.165749,78.3030895 L734.268827,83.3627461 L734.860683,77.456908 L735.23775,73.6964456 C737.038861,77.9326639 738.03377,82.5824619 738.03377,87.4619037 L738.03377,106.077494 C738.03377,125.845038 721.705202,141.843638 701.594801,141.843638 L647.79084,141.841554 L647.791884,155.450094 C647.791884,163.357393 641.507813,169.796404 633.613337,170.246248 L632.729783,170.271354 L615.001197,170.271354 L615.001197,87.4619063 C615.001197,67.6943625 631.329765,51.6957626 651.440166,51.6957626 L701.594799,51.6957626 Z M187.541667,41.3802083 C199.390625,41.3802083 206.226563,48.4895833 206.226563,60.7942708 L206.226563,127.239583 C206.226563,139.544271 199.390625,146.5625 187.541667,146.5625 C175.692708,146.5625 168.856771,139.544271 168.856771,127.239583 L168.856771,60.703125 C168.856771,48.3984375 175.692708,41.3802083 187.541667,41.3802083 Z M234.901042,41.3802083 C246.567708,41.3802083 254.132813,48.2161458 254.132813,60.2473958 L254.132813,62.5260417 L254.861979,62.5260417 C259.966146,48.3984375 269.536458,41.6536458 284.848958,41.6536458 C307.453125,41.6536458 319.848958,55.6901042 319.848958,79.84375 L319.848958,127.239583 C319.848958,140.455729 312.101563,146.5625 301.164063,146.5625 C290.226563,146.5625 282.479167,140.455729 282.479167,127.239583 L282.479167,88.1380208 C282.479167,78.0208333 277.739583,71.8229167 268.351563,71.8229167 C259.510417,71.8229167 254.132813,78.6588542 254.132813,88.046875 L254.132813,127.239583 C254.132813,140.455729 246.385417,146.5625 235.447917,146.5625 C224.510417,146.5625 216.763021,140.455729 216.763021,127.239583 L216.763021,60.15625 C216.763021,48.2161458 223.234375,41.3802083 234.901042,41.3802083 Z M348.614583,41.3802083 C360.463542,41.3802083 367.299479,48.4895833 367.299479,60.7942708 L367.299479,127.239583 C367.299479,139.544271 360.463542,146.5625 348.614583,146.5625 C336.765625,146.5625 329.929687,139.544271 329.929687,127.239583 L329.929687,60.703125 C329.929687,48.3984375 336.765625,41.3802083 348.614583,41.3802083 Z M399.56237,23.2713542 C407.866294,23.2713542 414.624471,29.8924524 414.624471,38.0926139 L414.620132,51.6962542 L468.00026,51.6990703 L468.00026,69.1329301 C468.00026,77.3333872 461.242904,83.9541898 452.938159,83.9541898 L418.689042,83.9541898 C416.430239,83.9541898 414.624471,85.7234667 414.624471,87.8730877 L414.624471,105.674034 C414.624471,107.823655 416.430239,109.592932 418.689042,109.592932 L466.886005,109.591824 C475.189929,109.591824 481.948106,116.212922 481.948106,124.413083 L481.948106,141.846943 L418.272756,141.846943 C398.162354,141.846943 381.833785,125.848345 381.833785,106.080802 L381.833785,23.2713542 L399.56237,23.2713542 Z M607.371636,51.6979694 L607.371636,141.845845 L589.643051,141.845845 C581.338306,141.845845 574.58095,135.22504 574.58095,127.024583 L574.576994,83.9480542 L521.194321,83.951983 C519.109272,83.951983 517.410241,85.4595325 517.161189,87.3821983 L517.12975,87.8708808 L517.12975,105.671828 C517.12975,107.821449 518.935518,109.590725 521.194321,109.590725 L568.308306,109.590725 L568.308306,127.024585 C568.308306,135.224747 561.550129,141.845845 553.246205,141.845845 L520.778035,141.845845 C500.667633,141.845845 484.339064,125.847247 484.339064,106.079704 L484.339064,87.4641131 C484.339064,67.6965694 500.667631,51.6979694 520.778032,51.6979694 L607.371636,51.6979694 Z M735.55238,30.2838542 L734.713936,49.4212769 L753.03377,45.7183874 L737.927398,56.977834 L752.171402,69.3640068 L734.172509,64.2668844 L732.870651,77.257476 L727.194013,68.0015563 L706.494204,82.2838542 L717.926904,59.8195123 L706.03377,55.4204525 L720.486319,52.183179 L712.891077,34.6829255 L726.951925,47.2874546 L735.55238,30.2838542 Z M187.541667,0 C198.114583,0 206.135417,7.65625 206.135417,17.6822917 C206.135417,27.7083333 198.114583,35.3645833 187.541667,35.3645833 C176.96875,35.3645833 168.947917,27.7083333 168.947917,17.6822917 C168.947917,7.65625 176.96875,0 187.541667,0 Z M348.614583,0 C359.1875,0 367.208333,7.65625 367.208333,17.6822917 C367.208333,27.7083333 359.1875,35.3645833 348.614583,35.3645833 C338.041667,35.3645833 330.020833,27.7083333 330.020833,17.6822917 C330.020833,7.65625 338.041667,0 348.614583,0 Z" id="Combined-Shape"></path>
        </g>
    </g>
</svg>